<svg width="66" height="66" viewBox="0 0 66 66" fill="none" xmlns="http://www.w3.org/2000/svg">
<path d="M47.2644 16.2505L51.3449 15.4154C53.0844 15.0595 54.8565 15.8565 55.7443 17.3942L57.8872 21.1058C58.775 22.6435 58.5792 24.5767 57.4012 25.9051L54.6404 29.0185C54.879 30.323 55 31.654 55 33C55 34.346 54.879 35.677 54.6404 36.9815L57.4012 40.0949C58.5792 41.4233 58.775 43.3565 57.8872 44.8942L55.7443 48.6058C54.8565 50.1435 53.0844 50.9405 51.3449 50.5846L47.2644 49.7495C45.2299 51.4838 42.8954 52.8369 40.3713 53.7343L39.0563 57.6794C38.4948 59.3639 36.9185 60.5 35.1429 60.5H30.8571C29.0816 60.5 27.5053 59.3639 26.9438 57.6794L25.6288 53.7343C23.1046 52.8369 20.7702 51.4838 18.7357 49.7495L14.6551 50.5846C12.9156 50.9405 11.1435 50.1435 10.2558 48.6058L8.11287 44.8942C7.22511 43.3565 7.42088 41.4233 8.59889 40.0949L11.3596 36.9815C11.1211 35.677 11 34.346 11 33C11 31.654 11.1211 30.323 11.3596 29.0185L8.59889 25.9051C7.42088 24.5767 7.22511 22.6435 8.11287 21.1058L10.2558 17.3942C11.1435 15.8565 12.9156 15.0595 14.6551 15.4154L18.7357 16.2505C20.7702 14.5162 23.1046 13.1631 25.6288 12.2657L26.9438 8.32056C27.5053 6.63615 29.0816 5.5 30.8571 5.5H35.1429C36.9185 5.5 38.4948 6.63615 39.0563 8.32056L40.3713 12.2657C42.8954 13.1631 45.2299 14.5162 47.2644 16.2505ZM38.8648 14.6593C38.4467 14.5258 38.1175 14.2007 37.9788 13.7843L36.4474 9.19019C36.2602 8.62872 35.7348 8.25 35.1429 8.25H30.8571C30.2653 8.25 29.7398 8.62872 29.5527 9.19019L28.0213 13.7843C27.8825 14.2007 27.5533 14.5258 27.1353 14.6593C24.5066 15.4991 22.0942 16.8986 20.0553 18.7521C19.7306 19.0473 19.2846 19.1698 18.8547 19.0818L14.1038 18.1096C13.524 17.9909 12.9333 18.2566 12.6374 18.7692L10.4944 22.4808C10.1985 22.9934 10.2638 23.6378 10.6565 24.0806L13.8704 27.705C14.1612 28.0329 14.2782 28.4798 14.1855 28.9081C13.8969 30.2418 13.75 31.6109 13.75 33C13.75 34.3891 13.8969 35.7582 14.1855 37.0919C14.2782 37.5202 14.1612 37.9671 13.8704 38.295L10.6565 41.9194C10.2638 42.3622 10.1985 43.0066 10.4944 43.5192L12.6374 47.2308C12.9333 47.7434 13.524 48.0091 14.1038 47.8904L18.8547 46.9182C19.2846 46.8302 19.7306 46.9527 20.0553 47.2479C22.0942 49.1014 24.5066 50.5009 27.1353 51.3407C27.5533 51.4743 27.8825 51.7993 28.0213 52.2157L29.5527 56.8098C29.7398 57.3713 30.2653 57.75 30.8571 57.75H35.1429C35.7348 57.75 36.2602 57.3713 36.4474 56.8098L37.9788 52.2157C38.1175 51.7993 38.4467 51.4743 38.8648 51.3407C41.4935 50.5009 43.9059 49.1014 45.9448 47.2479C46.2694 46.9527 46.7155 46.8302 47.1454 46.9182L51.8963 47.8904C52.4761 48.0091 53.0668 47.7434 53.3627 47.2308L55.5056 43.5192C55.8015 43.0066 55.7363 42.3622 55.3436 41.9194L52.1296 38.295C51.8389 37.9671 51.7218 37.5202 51.8145 37.0919C52.1031 35.7582 52.25 34.3891 52.25 33C52.25 31.6109 52.1031 30.2418 51.8145 28.9081C51.7218 28.4798 51.8389 28.0329 52.1296 27.705L55.3436 24.0806C55.7363 23.6378 55.8015 22.9934 55.5056 22.4808L53.3627 18.7692C53.0668 18.2566 52.4761 17.9909 51.8963 18.1096L47.1454 19.0818C46.7155 19.1698 46.2694 19.0473 45.9448 18.7521C43.9059 16.8986 41.4935 15.4991 38.8648 14.6593ZM33 44C26.9249 44 22 39.0751 22 33C22 26.9249 26.9249 22 33 22C39.0752 22 44 26.9249 44 33C44 39.0751 39.0752 44 33 44ZM33 41.25C37.5564 41.25 41.25 37.5564 41.25 33C41.25 28.4437 37.5564 24.75 33 24.75C28.4437 24.75 24.75 28.4437 24.75 33C24.75 37.5564 28.4437 41.25 33 41.25Z" fill="#F66303"/>
</svg>
