<svg width="161" height="102" viewBox="0 0 161 102" fill="none" xmlns="http://www.w3.org/2000/svg">
<path d="M160.093 40.7662L150.6 21.7813L154.749 13.4839C155.777 11.4252 155.375 8.94115 153.747 7.31558L148.403 1.97183C146.77 0.34627 144.291 -0.0451185 142.235 0.969881L131.547 6.31363C131.036 6.57195 130.566 6.90854 130.159 7.31558L120.082 17.3899L104.265 25.2986L101.311 19.3912C100.403 17.5804 98.556 16.4375 96.5312 16.4375H85.8438C84.7896 16.4375 83.7563 16.7506 82.8796 17.3351L68.8158 26.7102L56.1974 23.5556L58.5614 18.8276C59.8817 16.187 58.8119 12.9777 56.1713 11.6574L45.4838 6.31363C43.673 5.41344 41.5073 5.60652 39.8896 6.81983L18.8955 22.5614L8.64118 27.6886C6.83035 28.594 5.6875 30.444 5.6875 32.4688V43.1563C2.73383 43.1563 0.34375 45.549 0.34375 48.5V59.1875C0.34375 60.2417 0.65686 61.2749 1.24133 62.1516L11.9288 78.1829C12.8577 79.5736 14.3815 80.4529 16.0515 80.5521C17.7266 80.6617 19.3391 79.9676 20.4298 78.6969L25.6587 72.5991C25.9457 72.2677 26.1858 71.9024 26.3841 71.511L28.2158 67.8476C28.341 68.0094 28.4819 68.1634 28.6281 68.3095L33.9718 73.6532C35.6052 75.284 38.084 75.6806 40.1401 74.6552L47.3834 71.0335L53.7812 77.4314V85.9063C53.7812 87.9311 54.9241 89.781 56.7349 90.6864L67.4224 96.0302C68.1635 96.4007 68.9828 96.5938 69.8125 96.5938H96.5312C97.361 96.5938 98.1803 96.4007 98.9213 96.0302L109.609 90.6864C110.642 90.1698 111.482 89.3296 111.999 88.2964L114.029 84.239L123.25 93.4627V96.5938C123.25 99.5448 125.64 101.938 128.594 101.938H133.938C136.891 101.938 139.281 99.5448 139.281 96.5938V92.1163L144.348 76.9096C144.99 74.9892 144.489 72.8705 143.059 71.4406L135.096 63.4771L138.29 57.0845L139.558 60.8783C140.001 62.2221 140.967 63.3336 142.235 63.9677L152.922 69.3114C154.582 70.1334 156.544 70.0525 158.12 69.0766C159.696 68.1034 160.656 66.3839 160.656 64.5313V43.1563C160.656 42.3265 160.463 41.5072 160.093 40.7662ZM149.969 55.8842L148.993 55.3989L144.348 41.4655C143.665 39.4172 141.817 37.9795 139.662 37.8256C137.439 37.7134 135.467 38.8354 134.501 40.7662L123.814 62.1412C122.786 64.1999 123.187 66.6839 124.816 68.3095L133.165 76.6617L130.264 85.3662L116.341 71.4406C115.13 70.2299 113.424 69.6767 111.707 69.9429C110.011 70.2195 108.549 71.2919 107.782 72.8287L103.237 81.9246L95.2684 85.9063H71.0754L64.4688 82.603V75.2188C64.4688 73.802 63.9052 72.4425 62.9032 71.4406L52.2157 60.7531C50.5823 59.1249 48.1035 58.7309 46.0474 59.7511L38.8041 63.3728L37.75 62.3186V59.1875C37.75 56.5183 35.7826 54.2587 33.1368 53.8934L27.6783 53.1393C25.3821 52.8366 23.1904 54.0003 22.1675 56.0434L17.1212 66.1412L16.9073 66.3865L11.0312 57.5698V53.8438C13.9849 53.8438 16.375 51.4511 16.375 48.5V35.7721L24.1088 31.9052C24.3958 31.7617 24.6672 31.5921 24.9229 31.399L43.6573 17.3508L46.611 18.8276L43.6573 24.735C42.932 26.1857 42.9059 27.8843 43.5843 29.3586C44.2575 30.8302 45.5673 31.9156 47.1433 32.3096L68.5183 37.6534C69.9743 38.0108 71.519 37.7473 72.7766 36.9149L87.4615 27.125H93.2279L97.0948 34.8589C98.4203 37.502 101.625 38.5692 104.265 37.2489L125.64 26.5614C126.151 26.3031 126.621 25.9665 127.028 25.5595L137.105 15.4852L143.362 12.3541L139.845 19.3912C139.093 20.8967 139.093 22.6658 139.845 24.1714L149.969 44.4166V55.8842Z" fill="#F66303"/>
</svg>
