<svg width="17" height="21" viewBox="0 0 17 21" fill="none" xmlns="http://www.w3.org/2000/svg">
<path fill-rule="evenodd" clip-rule="evenodd" d="M7.76142 20.6104L8.49996 19.875L7.76142 20.6104ZM8.49996 19.875L9.23746 20.6104C9.14068 20.7076 9.02566 20.7847 8.89902 20.8373C8.77237 20.8899 8.63658 20.917 8.49944 20.917C8.3623 20.917 8.22651 20.8899 8.09986 20.8373C7.97321 20.7847 7.8582 20.7076 7.76142 20.6104L7.75517 20.6031L7.73746 20.5854L7.67288 20.5198C7.30568 20.1415 6.94452 19.7575 6.58954 19.3677C5.69829 18.3911 4.84488 17.3807 4.03121 16.3385C3.10204 15.1406 2.15204 13.7865 1.43017 12.449C0.723917 11.1375 0.166626 9.71667 0.166626 8.41667C0.166626 3.68854 3.90829 0.0833359 8.49996 0.0833359C13.0916 0.0833359 16.8333 3.68854 16.8333 8.41667C16.8333 9.71667 16.276 11.1375 15.5698 12.4479C14.8479 13.7875 13.8989 15.1406 12.9687 16.3385C11.8306 17.7965 10.6149 19.1923 9.32704 20.5198L9.26246 20.5854L9.24475 20.6031L9.2385 20.6094L8.49996 19.875ZM8.49996 11.5417C9.32876 11.5417 10.1236 11.2124 10.7097 10.6264C11.2957 10.0403 11.625 9.24547 11.625 8.41667C11.625 7.58787 11.2957 6.79301 10.7097 6.20696C10.1236 5.62091 9.32876 5.29167 8.49996 5.29167C7.67116 5.29167 6.8763 5.62091 6.29025 6.20696C5.7042 6.79301 5.37496 7.58787 5.37496 8.41667C5.37496 9.24547 5.7042 10.0403 6.29025 10.6264C6.8763 11.2124 7.67116 11.5417 8.49996 11.5417Z" fill="#F66303"/>
</svg>
