<svg width="20" height="21" viewBox="0 0 20 21" fill="none" xmlns="http://www.w3.org/2000/svg">
<path d="M18.6376 13.8006C17.6217 12.9841 16.6898 12.5872 15.7886 12.5872C14.4849 12.5872 13.5462 13.4165 12.6963 14.2661C12.5986 14.3639 12.4803 14.4095 12.324 14.4095C11.6079 14.4096 10.348 13.5127 8.57945 11.744C6.49884 9.66323 5.71219 8.33983 6.24115 7.81066C7.67509 6.37721 8.12275 4.9402 5.92729 2.2098C5.14133 1.23158 4.37236 0.756157 3.57646 0.756157C2.50309 0.756157 1.68713 1.61415 0.967241 2.37122C0.84278 2.50208 0.725211 2.62571 0.609939 2.74098C-0.203719 3.55457 -0.203301 5.32918 0.611122 7.4883C1.50469 9.8573 3.26899 12.4344 5.5791 14.7448C7.36561 16.5312 9.30944 17.9749 11.2006 18.9442C12.8516 19.7905 14.4531 20.2439 15.71 20.2439C15.7102 20.2439 15.7103 20.2439 15.7105 20.2439C16.4971 20.2439 17.136 20.0723 17.558 19.7234C18.4152 19.0147 20.0106 17.702 20 16.1428C19.9941 15.3065 19.5359 14.5228 18.6376 13.8006Z" fill="#F66303"/>
</svg>
