<svg width="17" height="21" viewBox="0 0 17 21" fill="none" xmlns="http://www.w3.org/2000/svg">
<path fill-rule="evenodd" clip-rule="evenodd" d="M7.76145 20.6104L8.49999 19.875L7.76145 20.6104ZM8.49999 19.875L9.23749 20.6104C9.14071 20.7076 9.02569 20.7847 8.89905 20.8373C8.7724 20.8899 8.63661 20.917 8.49947 20.917C8.36233 20.917 8.22654 20.8899 8.09989 20.8373C7.97324 20.7847 7.85823 20.7076 7.76145 20.6104L7.7552 20.6031L7.73749 20.5854L7.67291 20.5198C7.30571 20.1415 6.94455 19.7575 6.58957 19.3677C5.69832 18.3911 4.84492 17.3806 4.03124 16.3385C3.10207 15.1406 2.15207 13.7865 1.4302 12.449C0.723948 11.1375 0.166656 9.71666 0.166656 8.41666C0.166656 3.68854 3.90832 0.0833282 8.49999 0.0833282C13.0917 0.0833282 16.8333 3.68854 16.8333 8.41666C16.8333 9.71666 16.276 11.1375 15.5698 12.4479C14.8479 13.7875 13.8989 15.1406 12.9687 16.3385C11.8306 17.7965 10.615 19.1922 9.32707 20.5198L9.26249 20.5854L9.24478 20.6031L9.23853 20.6094L8.49999 19.875ZM8.49999 11.5417C9.32879 11.5417 10.1236 11.2124 10.7097 10.6264C11.2957 10.0403 11.625 9.24546 11.625 8.41666C11.625 7.58786 11.2957 6.793 10.7097 6.20695C10.1236 5.6209 9.32879 5.29166 8.49999 5.29166C7.67119 5.29166 6.87633 5.6209 6.29028 6.20695C5.70423 6.793 5.37499 7.58786 5.37499 8.41666C5.37499 9.24546 5.70423 10.0403 6.29028 10.6264C6.87633 11.2124 7.67119 11.5417 8.49999 11.5417Z" fill="#F66303"/>
</svg>
