<svg width="60" height="60" viewBox="0 0 60 60" fill="none" xmlns="http://www.w3.org/2000/svg">
<path d="M44.4505 34.333H35.242C34.7242 34.333 34.2947 34.7625 34.2947 35.2804C34.2947 35.7983 34.7242 36.2277 35.242 36.2277H44.4505C44.981 36.2277 45.3978 35.7983 45.3978 35.2804C45.3978 34.7625 44.9684 34.333 44.4505 34.333Z" fill="#F66303"/>
<path d="M59.0526 5.02783L10.7495 4.7373C10.4968 4.7373 10.2442 4.83836 10.0674 5.02783L0.265263 15.1836C0.101053 15.3605 0 15.6005 0 15.8405V54.3162C0 54.8341 0.429474 55.2636 0.947368 55.2636H49.6421C49.9074 55.2636 50.1474 55.1626 50.3242 54.9731L59.7347 45.1078C59.8989 44.931 60 44.7036 60 44.451V5.9752C60 5.4573 59.5832 5.04046 59.0526 5.02783ZM48.3032 53.3689H1.89474V16.4973H48.3032V29.3941H30.3411C29.8232 29.3941 29.3937 29.8236 29.3937 30.3415V40.2068C29.3937 40.7247 29.8232 41.1541 30.3411 41.1541H48.3032V53.3689ZM53.2042 49.2131L50.1979 52.3584V40.611L53.2042 37.6805V49.2131ZM58.1053 44.072L55.0989 47.2173V35.8236L58.1053 32.8931V44.072ZM58.1053 30.2405L48.8716 39.2594H31.2884V31.2889H49.2505C49.5032 31.2889 49.7558 31.1878 49.9326 30.9984L58.1053 22.5226V30.2405ZM58.1053 19.8068L55.0989 22.9268V10.6236C55.0989 10.1057 54.6695 9.67626 54.1516 9.67626H14.6653C14.1474 9.67626 13.7179 10.1057 13.7179 10.6236C13.7179 11.1415 14.1474 11.571 14.6653 11.571H53.2042V24.7331C53.2042 24.7836 53.2042 24.8341 53.2168 24.8847L50.1979 28.0173V15.5626C50.1979 15.0447 49.7684 14.6152 49.2505 14.6152H3.46105L11.1411 6.63204L58.1053 6.92257V19.8068Z" fill="#F66303"/>
</svg>
